<svg width="512" height="512" viewBox="0 0 512 512" fill="none" xmlns="http://www.w3.org/2000/svg">
<rect width="512" height="512" rx="95" fill="#02569B"/>
<path d="M154.648 385H69.3516C63.6346 385 59 389.635 59 395.352V480.648C59 486.365 63.6346 491 69.3516 491H154.648C160.365 491 165 486.365 165 480.648V395.352C165 389.635 160.365 385 154.648 385Z" fill="#13B9FD"/>
<path opacity="0.72" d="M115.102 472.238H115.062L96.6494 453.825L107.16 443.275L136.083 472.238H115.102Z" fill="white"/>
<path opacity="0.72" d="M115.062 435.372L96.6099 453.785L107.16 464.296L136.083 435.372H115.062Z" fill="white"/>
<path opacity="0.72" d="M115.062 403.842L115.023 403.802L80.7654 438.02L91.3152 448.57L136.043 403.842H115.062Z" fill="white"/>
<path d="M371.822 159.841C341.647 159.841 317.074 135.324 317.074 105.149C317.074 99.0477 312.082 94.0555 305.981 94.0555H263.713C262.16 94.0555 260.718 94.3883 259.387 94.943C255.393 96.607 252.62 100.545 252.62 105.149V286.088C252.564 297.959 244.965 308.442 233.705 312.159C230.876 313.102 227.991 313.545 224.996 313.545C209.798 313.545 197.428 301.176 197.428 285.977C197.428 270.779 209.798 258.409 224.996 258.409C231.098 258.409 236.09 253.417 236.09 247.316V205.048C236.09 198.947 231.098 193.955 224.996 193.955C200.423 193.955 177.293 203.495 159.931 220.912C142.625 238.274 133.084 261.349 133.084 285.922C133.084 310.495 142.625 333.625 159.987 350.987C177.348 368.348 200.479 377.944 225.052 377.944C229.656 377.944 234.315 377.612 238.863 376.946C258.333 374.006 276.083 365.076 290.117 351.042C294.443 346.716 294.443 339.671 290.117 335.345C285.79 331.018 278.745 331.018 274.419 335.345C263.769 345.995 250.345 352.817 235.591 355.036C232.152 355.535 228.602 355.812 225.052 355.812C206.414 355.812 188.886 348.546 175.684 335.345C162.483 322.143 155.216 304.615 155.216 285.977C155.216 267.34 162.483 249.812 175.684 236.61C186.223 226.071 199.536 219.304 213.958 217.03V237.442C191.826 242.49 175.296 262.348 175.296 285.977C175.296 313.434 197.65 335.733 225.052 335.733C230.377 335.733 235.646 334.901 240.694 333.181C260.995 326.47 274.752 307.555 274.807 286.088V116.243H295.719C300.6 149.746 327.225 176.371 360.784 181.197V201.443C351.576 200.389 342.645 198.059 334.103 194.454C326.504 191.237 319.293 187.077 312.803 182.029C309.475 179.422 304.927 178.978 301.155 180.864C297.383 182.75 294.942 186.577 294.942 190.793V286.31C294.942 292.412 299.934 297.404 306.036 297.404C312.138 297.404 317.13 292.412 317.13 286.31V210.928C319.848 212.315 322.677 213.646 325.506 214.866C340.205 221.079 355.847 224.241 371.933 224.241C378.035 224.241 383.027 219.248 383.027 213.147V170.88C382.916 164.778 377.979 159.841 371.822 159.841V159.841Z" fill="white"/>
</svg>
